<svg width="32px" height="32px" viewBox="-1 -1 32 32" version="1.1" xmlns="http://www.w3.org/2000/svg" xmlns:xlink="http://www.w3.org/1999/xlink">
  <g id="Logomark---Diamond" opacity="0.419484608" stroke="none" stroke-width="1" fill="none" fill-rule="evenodd">
    <g id="Logomark" fill="#FFFFFF">
      <g id="Logos">
        <g id="Features">
          <g id="Aquamarine-Copy">
            <path d="M0.00458146644,15.4991994 L1.62899648e-09,15.4991994 C-1.06715563e-05,14.7596811 0.0524266879,14.0201627 0.157290734,13.2881957 C0.325227969,12.1159064 0.628613263,10.9633624 1.06000206,9.8604755 C1.18069978,9.55188703 1.31099269,9.24690078 1.45168396,8.94687751 C1.66390424,8.49436115 1.89682516,8.05179749 2.15131392,7.62156142 C2.67291249,6.7398229 3.2820045,5.91008946 3.96652924,5.14786394 C4.69086497,4.341318 5.49954554,3.61073845 6.37533377,2.97168149 C7.19444736,2.37424994 8.07202335,1.85713411 8.99189184,1.43074035 C10.2490063,0.847984435 11.5844619,0.435999478 12.9514301,0.209194289 C13.5153212,0.115803917 14.084362,0.0536326127 14.6551373,0.0226803753 C14.9196989,0.0085384048 15.184554,0.00133400467 15.4495158,-1.4350303e-07 C15.4935961,-1.4350303e-07 15.537703,-1.4350303e-07 15.5817833,0.000266686131 C15.8555505,0.0024013232 16.1291042,0.0101393826 16.4024445,0.0261491606 C16.9150776,0.0555004203 17.4262698,0.110467325 17.9334595,0.190783045 C19.3651607,0.417321405 20.7635614,0.846917114 22.0756694,1.46275991 C22.9864924,1.89048781 23.855263,2.40733681 24.6661049,3.00316738 C25.5331678,3.64035654 26.3338168,4.36744061 27.0511883,5.16929036 C27.6846418,5.87724272 28.2532558,6.64315052 28.7471574,7.45468616 C29.2597371,8.29704063 29.6917343,9.18830495 30.0348772,10.1127896 C30.1362725,10.3861299 30.2299297,10.6623252 30.315582,10.9409487 C30.3254547,10.9737421 30.3241205,11.0117386 30.3361279,11.0487479 C30.4994276,11.5519619 30.1632223,11.8980133 29.7429656,11.8987604 C28.9977104,11.9000678 27.9885607,11.9010018 27.7577531,11.8969459 C27.1389752,11.8861127 26.8580036,11.0692671 26.7952986,10.9155466 C26.5734298,10.3697465 26.3116166,9.84014307 26.0128474,9.33225956 C25.6233028,8.67006847 25.17108,8.04488663 24.6644772,7.46736054 C24.1190507,6.84559413 23.5107059,6.27919486 22.8515567,5.77960977 C22.2051352,5.28968388 21.509964,4.86419735 20.779251,4.51206228 C19.7550521,4.01845414 18.6617977,3.67050828 17.5407664,3.48105925 C17.1431903,3.41381818 16.7422787,3.36658934 16.3400064,3.33910588 C16.1251018,3.32443027 15.9099304,3.31589172 15.6945722,3.31215609 C15.6163644,3.31108876 15.5381299,3.31055513 15.4599222,3.31055513 C15.2380267,3.31162243 15.0162379,3.31802635 14.7946892,3.33056734 C14.3459885,3.35618298 13.898702,3.40661378 13.4555514,3.48132607 C12.3953038,3.66063559 11.3597914,3.98189848 10.3841822,4.43417471 C9.63858011,4.77977245 8.92835969,5.20128323 8.26736932,5.68958147 C7.60037531,6.1823357 6.98367864,6.74291813 6.42958023,7.35988162 C5.61121374,8.27102475 4.9304246,9.30488284 4.41877878,10.4176692 C4.00127044,11.3256904 3.6968979,12.2851831 3.51478666,13.2678633 C3.47935168,13.4591 3.44850618,13.6512174 3.42230353,13.8439484 L4.79121957,13.8439484 C4.80448103,13.757629 4.81880976,13.6714697 4.83417915,13.5854973 C5.01805147,12.5570825 5.35230894,11.5564447 5.82310315,10.6238484 C6.36140522,9.55762386 7.07701564,8.58238822 7.93156424,7.74795859 C8.8341688,6.86662031 9.89006702,6.14428584 11.039489,5.62423486 C11.9545546,5.21022202 12.927122,4.9251679 13.9208756,4.77955898 C14.2602028,4.72982193 14.6018781,4.69628145 14.9443806,4.6788575 C15.106026,4.67066581 15.2678049,4.66658333 15.4296637,4.66503571 C15.4760921,4.6648756 15.5225204,4.6648756 15.5689755,4.66503571 C15.7308343,4.66658333 15.8925864,4.67066581 16.0542852,4.67888416 C16.3967343,4.69628145 16.7384097,4.72982193 17.0776836,4.77953229 C18.0714639,4.92514121 19.0440579,5.21022202 19.9591234,5.62423486 C21.1085454,6.14428584 22.1644436,6.86662031 23.0670483,7.74795859 C23.9215968,8.58238822 24.6372339,9.55762386 25.1755094,10.6238484 C25.2396019,10.750806 25.3238399,11.0155276 25.3246404,11.1880063 C25.3264015,11.5709335 25.1069608,11.8770405 24.6884119,11.8861927 C24.2574019,11.8956652 23.1333554,11.8916894 22.517566,11.8885942 C22.0668641,11.8863261 21.8628195,11.4786905 21.7306054,11.2838515 C21.4115838,10.8135642 21.0396233,10.3793524 20.6235559,9.99199579 C20.0259909,9.43568275 19.338371,8.97694925 18.5944766,8.640397 C17.9747115,8.36001242 17.3168963,8.16495995 16.6444857,8.06209715 C16.4090886,8.02607515 16.1720104,8.00128668 15.9342652,7.98770505 C15.8056801,7.9803672 15.6770148,7.97671168 15.5479493,7.9754842 L15.4506899,7.9754842 C15.3216244,7.97671168 15.1929324,7.9803672 15.0643473,7.98770505 C14.8266288,8.00128668 14.589524,8.02607515 14.3541535,8.06209715 C13.6817162,8.16495995 13.0239278,8.36001242 12.4041625,8.640397 C11.6602415,8.97694925 10.9726482,9.43568275 10.3750833,9.99199579 C9.75665223,10.5677341 9.23558733,11.2470824 8.84110641,11.9943654 C8.53331842,12.5773615 8.30317786,13.2008356 8.15844946,13.8439484 L29.3448558,13.8439484 C29.3891495,13.8457362 29.43371,13.8475239 29.4780038,13.8493117 C29.5954088,13.8635871 29.6258274,13.8636671 29.740831,13.8920578 C29.9137366,13.9346171 30.0791709,14.0051669 30.229396,14.1002116 C30.3798879,14.1952563 30.5146369,14.3145825 30.6269722,14.4523467 C30.7395743,14.5901108 30.8294959,14.745966 30.8924676,14.9122542 C30.9719829,15.1218756 31.0080048,15.3471065 30.998399,15.5708432 C30.9949302,16.3351499 30.9354272,17.0992166 30.81989,17.8546646 C30.6747347,18.8051118 30.4401914,19.7418172 30.1205295,20.6485844 C29.6621162,21.9488985 29.0283958,23.1865344 28.2428494,24.3195197 C27.4130092,25.5161706 26.4145861,26.5950695 25.2860035,27.5152849 C24.6356596,28.0455554 23.9424362,28.5232178 23.2150586,28.9416494 C22.4939249,29.3564894 21.7393574,29.7131019 20.9608819,30.0065584 C20.0637473,30.344741 19.1351001,30.5988135 18.1908168,30.7646348 C17.2862643,30.9234784 16.3676766,31.0012567 15.4493024,30.9983188 C14.4996557,30.9952796 13.5503559,30.905897 12.6170926,30.7299096 C11.6298496,30.5437399 10.6610713,30.2607777 9.72882188,29.886293 C9.48835504,29.7896927 9.2503163,29.6870139 9.01505265,29.5783929 C8.97900396,29.5669886 8.9427418,29.55278 8.90623949,29.5356415 C7.99541652,29.1080096 7.12664595,28.5911633 6.3158041,27.9953648 C5.44874116,27.358229 4.64806548,26.6310115 3.93061397,25.8291884 C3.2971604,25.121236 2.72854647,24.3553282 2.23471153,23.5437926 C1.72211045,22.7014114 1.29017198,21.8101471 0.947111786,20.8856892 C0.845679166,20.6123489 0.752075336,20.3361535 0.66639367,20.05753 C0.656310179,20.0247367 0.65774839,19.9867135 0.64574639,19.9497309 C0.48249202,19.4465168 0.818750722,19.1004388 1.23897538,19.0997184 C1.98413182,19.0983842 2.9933482,19.097477 3.22415584,19.1015061 C3.84288037,19.1123394 4.1239854,19.9292116 4.18650359,20.0829056 C4.36255777,20.5158099 4.56366726,20.9385214 4.78844454,21.3482917 C4.81528763,21.3771627 4.837221,21.4064606 4.85379115,21.4361053 C5.48591054,22.5662623 6.29878032,23.5939299 7.2517357,24.4705453 C7.79094499,24.9665816 8.37460815,25.4141883 8.99367961,25.8060277 C9.60720095,26.1943181 10.2554369,26.5277217 10.9283545,26.8004483 C11.6591208,27.0966559 12.4188115,27.3210863 13.1932045,27.4696303 C13.9269326,27.6103563 14.6734952,27.6829073 15.4205381,27.6876301 C16.1439399,27.6922196 16.8677153,27.633437 17.5806574,27.510562 C18.3350115,27.3805359 19.0768779,27.1788394 19.7931554,26.9088345 C21.0001593,26.4538366 22.1326109,25.8048002 23.1371177,24.9956394 C24.0300631,24.2763467 24.8212663,23.4315641 25.4803089,22.493231 C26.1315332,21.5660781 26.6528649,20.5482831 27.0229043,19.4774157 C27.26145,18.7874743 27.4370239,18.0759731 27.5474914,17.3543857 C27.5576309,17.2878118 27.5672368,17.2211844 27.576309,17.1544503 L26.2074196,17.1544503 C26.0451338,18.2083206 25.7259255,19.2370556 25.262816,20.1976156 C24.706076,21.3524009 23.9429432,22.4056308 23.0204331,23.2956944 C22.5215418,23.7770284 21.9766756,24.2105999 21.3953873,24.5883506 C20.8449711,24.9460357 20.2620551,25.2536636 19.6559783,25.5057643 C18.9768702,25.7882834 18.2689445,26.001 17.5465833,26.1395913 C16.8723315,26.2689503 16.1858589,26.3336032 15.4993062,26.3336032 C14.812807,26.3336032 14.126361,26.2689503 13.4521092,26.1395913 C12.7297214,26.0010267 12.021769,25.7882834 11.3426342,25.5057643 C11.2604774,25.4715834 11.1787207,25.4363886 11.0974979,25.4001531 C11.0724959,25.3940694 11.047574,25.3854507 11.0227588,25.3742439 C9.87333682,24.8541662 8.81743859,24.1318318 7.91483404,23.2504935 C7.0602854,22.4160905 6.34467502,21.4408549 5.80637294,20.3746037 C5.74228044,20.2476462 5.658069,19.9829512 5.65726852,19.8104458 C5.65550747,19.4275186 5.87492144,19.1214383 6.29347042,19.1122594 C6.72448032,19.1028136 7.84855349,19.1067894 8.46431629,19.1098846 C8.91501822,19.1121526 9.11908952,19.5197616 9.25127693,19.7146273 C9.52845952,20.1231968 9.84558655,20.5045764 10.1969478,20.8516417 C10.2287539,20.8721609 10.2555169,20.8927068 10.2767833,20.9132527 C10.9518355,21.5646105 11.7479217,22.0887706 12.6141041,22.4491507 C13.0846848,22.6449503 13.5752511,22.792347 14.0757968,22.8883523 C14.5446165,22.9782739 15.021948,23.0230746 15.4993062,23.0230746 C15.9766645,23.0230746 16.453996,22.9782739 16.9228424,22.8883523 C17.4233881,22.792347 17.9139543,22.6449503 18.3845084,22.4491507 C19.2506907,22.0887706 20.0468037,21.5646105 20.7218559,20.9132527 C21.3740409,20.2839617 21.911836,19.5375325 22.3004734,18.7187124 C22.5375782,18.2192073 22.7186221,17.6936329 22.8400296,17.1544503 L1.65980574,17.1544503 C1.5415415,17.1497007 1.51140043,17.1520488 1.39428623,17.1330239 C1.21875236,17.1044998 1.04804009,17.047505 0.890573254,16.9648679 C0.733106417,16.882204 0.589226542,16.7740847 0.466033965,16.6458464 C0.342841394,16.5175814 0.240605619,16.3694642 0.164367056,16.2088061 C0.059433634,15.9876577 0.00467752512,15.7438021 0.00458146644,15.4991994 L0.00458146644,15.4991994 L0.00458146644,15.4991994 L0.00458146644,15.4991994 Z" id="Logomark"></path>
          </g>
        </g>
      </g>
    </g>
  </g>
</svg>
